<svg width="588" xmlns="http://www.w3.org/2000/svg" height="487" fill="none"><g data-testid="Group"><path d="M313.239 487H0V0h588v177.911c0-8.279-6.721-15-15-15h-45.302c8.832 25.228 13.636 52.351 13.636 80.589s-4.804 55.361-13.636 80.589H573c8.279 0 15-6.721 15-15V487H313.239ZM414.745 46.607c10.177-2.024 20.748 3.755 31.887 12.815 7.463 6.071 28.234 26.25 26.459 35.074-1.357 6.745-4.507 12.795-14.247 9.443-13.779-4.742-23.745-19.56-31.208-25.631-8.169-6.644-17.448-9.499-20.354-18.886-2.713-8.768 1.476-11.625 7.463-12.815Zm-378.519-.269c-4.508 0-8.168 3.664-8.168 8.177s3.66 8.177 8.168 8.177c4.508 0 8.167-3.664 8.167-8.177s-3.659-8.177-8.167-8.177Zm432.976 327.275c-1.632-4.202-6.373-6.286-10.58-4.652-4.207 1.634-6.297 6.372-4.665 10.574 1.633 4.202 6.373 6.287 10.58 4.653 4.207-1.634 6.297-6.373 4.665-10.575Zm-25 10c-1.632-4.202-6.373-6.286-10.58-4.652-4.207 1.634-6.297 6.372-4.665 10.574 1.633 4.202 6.373 6.287 10.58 4.653 4.207-1.634 6.297-6.373 4.665-10.575ZM31.688 54.515v117.207h8.168V54.515h-8.168Zm37.614 269.574c-8.832-25.228-13.636-52.351-13.636-80.589s4.804-55.361 13.636-80.589H24c-8.279 0-15 6.721-15 15v131.178c0 8.279 6.721 15 15 15h45.302Zm-31.776-9.72s16.579 23.24 9.075 61.784c-6.411 32.931-33.934 18.726-29.948 45.429 3.88 25.995 13.193 32.654 41.746 33.618 25.293.853 10.042-25.055 39.023-30.892 73.267-14.757 114.348 0 114.348 0m-.392-27.258c-16.028 0-29.041 13.028-29.041 29.075 0 16.047 13.013 29.075 29.041 29.075s29.04-13.028 29.04-29.075c0-16.047-13.012-29.075-29.04-29.075ZM67.989 321.638s12.41 64.83 90.973 121.12c74.382 53.295 138.444 43.257 138.444 43.257s5.756.985 15.833.985c24.185 0 73.259-5.672 127.39-44.242 77.112-54.944 87.474-121.12 87.474-121.12s-79.229 64.419-230.697 64.419c-152.945 0-229.417-64.419-229.417-64.419ZM298.5 0ZC164.476 0 55.666 109.109 55.666 243.5c0 134.391 108.81 243.5 242.834 243.5s242.834-109.109 242.834-243.5C541.334 109.109 432.524 0 298.5 0Z" style="fill: rgb(250, 218, 193); fill-opacity: 1;" class="fills" data-testid="Difference"/><rect rx="0" ry="0" x="10" y="376" width="134" height="79" style="fill: rgb(250, 218, 193); fill-opacity: 1;" class="fills" data-testid="Rectangle"/><rect rx="0" ry="0" x="16" y="322" width="57" height="63" style="fill: rgb(250, 218, 193); fill-opacity: 1;" class="fills" data-testid="Rectangle"/><rect rx="0" ry="0" x="56" y="350" width="41" height="32" style="fill: rgb(250, 218, 193); fill-opacity: 1;" class="fills" data-testid="Rectangle"/><rect rx="0" ry="0" x="70.5" y="333.5" width="8" height="37.5" style="fill: rgb(250, 218, 193); fill-opacity: 1;" class="fills" data-testid="Rectangle"/><g data-testid="astro helmet group"><g data-testid="Ellipse"><ellipse cx="298.5" cy="243.5" rx="242.834" ry="243.5" style="fill: rgb(39, 10, 67); fill-opacity: 0.5;" class="fills"/><g class="strokes"><g class="inner-stroke-shape"><defs><clipPath id="b"><use href="#a"/></clipPath><ellipse cx="298.5" cy="243.5" rx="242.834" ry="243.5" id="a" style="fill: none; stroke-width: 10; stroke: rgb(247, 125, 0); stroke-opacity: 1;"/></defs><use href="#a" clip-path="url('#b')"/></g></g></g><g data-testid="Path"><path d="M67.989 321.638s76.472 64.419 229.417 64.419c151.468 0 230.697-64.419 230.697-64.419s-10.362 66.176-87.474 121.12c-76.686 54.641-143.223 43.257-143.223 43.257s-64.062 10.038-138.444-43.257c-78.563-56.29-90.973-121.12-90.973-121.12Z" style="fill: rgb(247, 125, 0); fill-opacity: 1;" class="fills"/><g class="strokes"><g class="inner-stroke-shape"><defs><clipPath id="d"><use href="#c"/></clipPath><path d="M67.989 321.638s76.472 64.419 229.417 64.419c151.468 0 230.697-64.419 230.697-64.419s-10.362 66.176-87.474 121.12c-76.686 54.641-143.223 43.257-143.223 43.257s-64.062 10.038-138.444-43.257c-78.563-56.29-90.973-121.12-90.973-121.12Z" id="c" style="fill: none; stroke-width: 10; stroke: rgb(247, 125, 0); stroke-opacity: 1;"/></defs><use href="#c" clip-path="url('#d')"/></g></g></g><ellipse cx="211.378" cy="426.125" rx="29.041" ry="29.075" style="fill: rgb(80, 163, 171); fill-opacity: 1;" class="fills" data-testid="Ellipse"/><g data-testid="Path"><path d="M211.77 424.308s-41.081-14.757-114.348 0c-28.981 5.837-13.73 31.745-39.023 30.892-28.553-.964-37.866-7.623-41.746-33.618-3.986-26.703 23.537-12.498 29.948-45.429 7.504-38.544-9.075-61.784-9.075-61.784" class="fills"/><g class="strokes"><g class="stroke-shape"><defs><marker refX="3" fill-opacity="1" orient="auto-start-reverse" id="e" viewBox="0 0 6 6" fill="#1d313c" refY="3" markerWidth="6" markerHeight="6"><path d="M3 2.5a.5.5 0 0 1 0 1"/></marker></defs><path d="M211.77 424.308s-41.081-14.757-114.348 0c-28.981 5.837-13.73 31.745-39.023 30.892-28.553-.964-37.866-7.623-41.746-33.618-3.986-26.703 23.537-12.498 29.948-45.429 7.504-38.544-9.075-61.784-9.075-61.784" style="fill: none; stroke-width: 32; stroke: rgb(29, 49, 60); stroke-opacity: 1; marker-start: url(&quot;#e&quot;);"/></g></g></g><path d="M69.302 324.089H24c-8.279 0-15-6.721-15-15V177.911c0-8.279 6.721-15 15-15h45.302c-8.832 25.228-13.636 52.351-13.636 80.589s4.804 55.361 13.636 80.589ZM527.698 162.911H573c8.279 0 15 6.721 15 15v131.178c0 8.279-6.721 15-15 15h-45.302c8.832-25.228 13.636-52.351 13.636-80.589s-4.804-55.361-13.636-80.589Z" style="fill: rgb(247, 125, 0); fill-opacity: 1;" class="fills" data-testid="Difference"/><rect rx="0" ry="0" x="31.688" y="54.515" width="8.168" height="117.207" style="fill: rgb(247, 125, 0); fill-opacity: 1;" class="fills" data-testid="Rectangle"/><ellipse cx="436.58" cy="386.574" rx="8.168" ry="8.177" transform="rotate(68.771 436.58 386.574)" style="fill: rgb(47, 122, 7); fill-opacity: 1;" class="fills" data-testid="Ellipse"/><ellipse cx="461.58" cy="376.574" rx="8.168" ry="8.177" transform="rotate(68.771 461.58 376.574)" style="fill: rgb(245, 2, 2); fill-opacity: 1;" class="fills" data-testid="Ellipse"/><ellipse cx="36.226" cy="54.515" rx="8.168" ry="8.177" style="fill: rgb(245, 2, 2); fill-opacity: 1;" class="fills" data-testid="Ellipse"/><path d="M414.745 46.607c-5.987 1.19-10.176 4.047-7.463 12.815 2.906 9.387 12.185 12.242 20.354 18.886 7.463 6.071 17.429 20.889 31.208 25.631 9.74 3.352 12.89-2.698 14.247-9.443 1.775-8.824-18.996-29.003-26.459-35.074-11.139-9.06-21.71-14.839-31.887-12.815Z" style="fill: rgb(255, 255, 255); fill-opacity: 0.5;" class="fills" data-testid="Path"/></g></g></svg>
